<svg width="130" height="129" xmlns="http://www.w3.org/2000/svg" xmlns:xlink="http://www.w3.org/1999/xlink" xml:space="preserve" overflow="hidden"><defs><clipPath id="clip0"><rect x="982" y="32" width="130" height="129"/></clipPath><clipPath id="clip1"><rect x="983" y="33" width="128" height="128"/></clipPath><clipPath id="clip2"><rect x="983" y="33" width="128" height="128"/></clipPath><clipPath id="clip3"><rect x="983" y="33" width="128" height="128"/></clipPath></defs><g clip-path="url(#clip0)" transform="translate(-982 -32)"><g clip-path="url(#clip1)"><g clip-path="url(#clip2)"><g clip-path="url(#clip3)"><path d="M1067 146.689C1066.3 137.676 1060.69 129.645 1051.62 124.657L1051.29 124.469C1049.72 123.517 1048.29 122.48 1047 121.363 1045.71 122.477 1044.29 123.509 1042.75 124.442L1042.43 124.634C1033.3 129.642 1027.7 137.67 1027 146.689L1023.02 146.382C1023.82 135.99 1030.17 126.797 1040.45 121.156L1040.7 121.009C1042.53 119.9 1044.18 118.619 1045.59 117.219L1047 115.823 1048.41 117.219C1049.82 118.62 1051.47 119.902 1053.32 121.026L1053.58 121.171C1063.83 126.804 1070.18 135.999 1070.99 146.382L1067 146.689Z" fill="#282D33" fill-rule="nonzero" fill-opacity="1"/><path d="M1047.01 83.034 1046.27 82.741C1042.56 81.264 1038.2 79.914 1033.32 78.728L1032.61 78.567C1026.94 77.32 1021.66 75.859 1016.94 74.228L1018.25 70.448C1022.82 72.029 1027.95 73.447 1033.49 74.664L1034.24 74.835C1039.01 75.995 1043.29 77.304 1047.01 78.735 1050.74 77.301 1055.01 75.994 1059.74 74.845L1060.51 74.664C1065.79 73.503 1070.69 72.164 1075.09 70.677L1076.37 74.467C1071.83 76 1066.79 77.379 1061.39 78.565L1060.67 78.735C1055.82 79.913 1051.47 81.262 1047.75 82.741L1047.01 83.034Z" fill="#282D33" fill-rule="nonzero" fill-opacity="1"/><path d="M1090.85 49.943 1003.15 49.943 1003.15 33 1090.85 33 1090.85 49.943ZM1007.15 45.943 1086.85 45.943 1086.85 37 1007.15 37 1007.15 45.943Z" fill="#282D33" fill-rule="nonzero" fill-opacity="1"/><path d="M1090.85 161 1003.15 161 1003.15 144.059 1090.85 144.059 1090.85 161ZM1007.15 157 1086.85 157 1086.85 148.059 1007.15 148.059 1007.15 157Z" fill="#282D33" fill-rule="nonzero" fill-opacity="1"/><path d="M1003.15 55.25 1007.15 55.25 1007.15 138.75 1003.15 138.75Z" fill="#282D33" fill-rule="nonzero" fill-opacity="1"/><path d="M1086.85 54.936 1090.85 54.936 1090.85 138.439 1086.85 138.439Z" fill="#282D33" fill-rule="nonzero" fill-opacity="1"/><path d="M1077.98 146.846 1073.98 146.846 1073.98 111.23 1046.46 96.844 1073.98 82.457 1073.98 54.937 1077.98 54.937 1077.98 84.879 1055.09 96.844 1077.98 108.809Z" fill="#282D33" fill-rule="nonzero" fill-opacity="1"/><path d="M1020.01 146.846 1016.01 146.846 1016.01 108.809 1038.91 96.843 1016.02 84.879 1016.02 54.937 1020.02 54.937 1020.02 82.457 1047.54 96.843 1020.01 111.23Z" fill="#282D33" fill-rule="nonzero" fill-opacity="1"/><path d="M1049 118.962 1045 118.962 1045 114.962 1049 114.962 1049 118.962ZM1049 110.962 1045 110.962 1045 106.962 1049 106.962 1049 110.962ZM1049 102.962 1045 102.962 1045 102.774 1049 102.774 1049 102.962Z" fill="#282D33" fill-rule="nonzero" fill-opacity="1"/></g></g></g></g></svg>