<svg width="128" height="129" xmlns="http://www.w3.org/2000/svg" xmlns:xlink="http://www.w3.org/1999/xlink" xml:space="preserve" overflow="hidden"><defs><clipPath id="clip0"><rect x="44" y="277" width="128" height="129"/></clipPath><clipPath id="clip1"><rect x="44" y="278" width="128" height="128"/></clipPath><clipPath id="clip2"><rect x="44" y="278" width="128" height="128"/></clipPath><clipPath id="clip3"><rect x="44" y="278" width="128" height="128"/></clipPath></defs><g clip-path="url(#clip0)" transform="translate(-44 -277)"><g clip-path="url(#clip1)"><g clip-path="url(#clip2)"><g clip-path="url(#clip3)"><path d="M107.09 332.993C92.531 332.993 80.686 321.119 80.686 306.523 80.686 291.937 92.531 280.07 107.09 280.07 121.633 280.07 133.464 291.936 133.464 306.523 133.464 321.119 121.633 332.993 107.09 332.993ZM107.09 284.081C94.742 284.081 84.697 294.148 84.697 306.523 84.697 318.907 94.742 328.982 107.09 328.982 119.421 328.982 129.453 318.907 129.453 306.523 129.453 294.148 119.421 284.081 107.09 284.081Z" fill="#282D33" fill-rule="nonzero" fill-opacity="1"/><path d="M109.254 309.732 102.486 307.091C99.755 305.351 99.181 303.424 99.181 302.113L99.181 299.242C99.181 295.811 101.966 293.019 105.389 293.019L108.764 293.019C112.186 293.019 114.969 295.811 114.969 299.242L114.969 300.583 110.958 300.583 110.958 299.242C110.958 298.022 109.974 297.03 108.764 297.03L105.389 297.03C104.178 297.03 103.192 298.023 103.192 299.242L103.192 302.113C103.192 302.508 103.67 303.059 104.481 303.603L110.691 305.987 109.254 309.732Z" fill="#282D33" fill-rule="nonzero" fill-opacity="1"/><path d="M108.765 320.532 105.39 320.532C101.967 320.532 99.182 317.741 99.182 314.312L99.182 312.968 103.193 312.968 103.193 314.312C103.193 315.53 104.178 316.521 105.39 316.521L108.765 316.521C109.975 316.521 110.959 315.53 110.959 314.312L110.959 311.44C110.959 311.111 110.536 310.51 109.597 309.878L103.68 307.593 105.124 303.852 111.595 306.393C113.802 307.8 114.969 309.545 114.969 311.44L114.969 314.313C114.97 317.742 112.187 320.532 108.765 320.532Z" fill="#282D33" fill-rule="nonzero" fill-opacity="1"/><path d="M105.326 289.255 109.337 289.255 109.337 295.553 105.326 295.553Z" fill="#282D33" fill-rule="nonzero" fill-opacity="1"/><path d="M105.326 317.508 109.337 317.508 109.337 323.805 105.326 323.805Z" fill="#282D33" fill-rule="nonzero" fill-opacity="1"/><path d="M67.743 339.768 63.819 338.942 66.957 324.067C68.103 320.47 67.539 315.736 64.233 314.048L63.508 313.679 62.079 318.518 58.233 317.382 60.983 308.071 63.066 308.982C63.262 309.063 63.379 309.113 63.497 309.172L66.056 310.475C71.354 313.182 72.453 319.901 70.81 325.184L67.743 339.768Z" fill="#282D33" fill-rule="nonzero" fill-opacity="1"/><path d="M68.772 377.822 50.667 338.92 44 302.725 46.175 302.515C46.396 302.493 46.558 302.479 46.727 302.479L49.589 302.479C55.536 302.479 59.555 307.97 60.479 313.429L67.306 338.992 69.33 341.023C69.698 338.26 71.006 335.587 72.917 333.776L73.02 333.685 75.296 331.787 99.313 355.879 99.37 372.148 95.359 372.162 95.308 357.543 75.118 337.29C73.197 339.625 72.452 343.562 74.216 345.925L86.935 358.683 84.231 361.639 84.092 361.513 71.657 349.098C71.511 348.942 71.371 348.783 71.239 348.619L63.702 341.06 61.611 333.129 56.537 314.174C55.933 310.448 53.293 306.489 49.589 306.489L48.772 306.489 54.519 337.691 72.409 376.129 68.772 377.822Z" fill="#282D33" fill-rule="nonzero" fill-opacity="1"/><path d="M105.212 403.93 101.201 403.93 101.201 379.295 64.397 379.295 64.397 393.304 60.386 393.304 60.386 375.284 105.212 375.284Z" fill="#282D33" fill-rule="nonzero" fill-opacity="1"/><path d="M68.545 382.814 72.556 382.814 72.556 387.341 68.545 387.341Z" fill="#282D33" fill-rule="nonzero" fill-opacity="1"/><path d="M148.324 339.769 145.26 325.185C143.616 319.903 144.715 313.184 150.011 310.478L152.568 309.176C152.695 309.111 152.829 309.054 152.969 308.998L155.03 308.143 155.731 310.253 157.837 317.382 153.991 318.519 152.561 313.681 151.832 314.05C148.53 315.738 147.965 320.47 149.111 324.067L149.163 324.264 152.248 338.945 148.324 339.769Z" fill="#282D33" fill-rule="nonzero" fill-opacity="1"/><path d="M147.295 377.822 143.658 376.13 161.55 337.692 167.296 306.489 166.479 306.489C162.777 306.49 160.136 310.449 159.533 314.174L159.49 314.373 152.368 341.059 144.864 348.587C144.734 348.746 144.599 348.9 144.457 349.051L131.975 361.515 129.135 358.683 141.887 345.892C143.621 343.564 142.872 339.625 140.95 337.289L120.761 357.542 120.709 372.161 116.698 372.147 116.756 355.878 140.758 331.798 143.152 333.776C145.062 335.587 146.372 338.261 146.745 341.018L148.765 338.991 150.579 332.106 155.591 313.427C156.515 307.97 160.533 302.479 166.48 302.477L169.344 302.479C169.506 302.479 169.659 302.491 169.818 302.505L172 302.711 171.672 304.874 165.402 338.922 147.295 377.822Z" fill="#282D33" fill-rule="nonzero" fill-opacity="1"/><path d="M114.867 403.93 110.856 403.93 110.856 375.284 155.682 375.284 155.682 393.304 151.671 393.304 151.671 379.295 114.867 379.295Z" fill="#282D33" fill-rule="nonzero" fill-opacity="1"/><path d="M143.513 382.815 147.524 382.815 147.524 387.341 143.513 387.341Z" fill="#282D33" fill-rule="nonzero" fill-opacity="1"/><path d="M72.944 394.351 103.249 394.351 103.249 398.362 72.944 398.362Z" fill="#282D33" fill-rule="nonzero" fill-opacity="1"/><path d="M112.369 394.351 147.088 394.351 147.088 398.362 112.369 398.362Z" fill="#282D33" fill-rule="nonzero" fill-opacity="1"/></g></g></g></g></svg>