<svg width="128" height="130" xmlns="http://www.w3.org/2000/svg" xmlns:xlink="http://www.w3.org/1999/xlink" xml:space="preserve" overflow="hidden"><defs><clipPath id="clip0"><rect x="496" y="526" width="128" height="130"/></clipPath><clipPath id="clip1"><rect x="496" y="527" width="128" height="128"/></clipPath><clipPath id="clip2"><rect x="496" y="527" width="128" height="128"/></clipPath><clipPath id="clip3"><rect x="496" y="527" width="128" height="128"/></clipPath></defs><g clip-path="url(#clip0)" transform="translate(-496 -526)"><g clip-path="url(#clip1)"><g clip-path="url(#clip2)"><g clip-path="url(#clip3)"><path d="M607.674 616.853 606.361 615.726C604.825 614.406 591.347 602.579 591.347 593.93 591.347 584.867 598.67 577.492 607.673 577.492 616.675 577.492 623.999 584.865 623.999 593.929 623.999 602.576 610.52 614.406 608.984 615.726L607.674 616.853ZM607.674 581.518C600.892 581.518 595.373 587.086 595.373 593.93 595.373 599.122 603.318 607.499 607.674 611.502 612.028 607.499 619.975 599.121 619.975 593.929 619.975 587.085 614.456 581.518 607.674 581.518Z" fill="#282D33" fill-rule="nonzero" fill-opacity="1"/><path d="M607.672 601.18C603.694 601.18 600.458 597.927 600.458 593.929 600.458 589.931 603.694 586.679 607.672 586.679 611.648 586.679 614.882 589.931 614.882 593.929 614.882 597.927 611.647 601.18 607.672 601.18ZM607.672 590.704C605.913 590.704 604.484 592.15 604.484 593.929 604.484 595.708 605.914 597.155 607.672 597.155 609.428 597.155 610.856 595.709 610.856 593.929 610.855 592.15 609.428 590.704 607.672 590.704Z" fill="#282D33" fill-rule="nonzero" fill-opacity="1"/><path d="M530.073 578.699 528.761 577.573C527.224 576.252 513.746 564.423 513.746 555.776 513.746 546.713 521.07 539.338 530.073 539.338 539.074 539.338 546.398 546.712 546.398 555.776 546.398 564.422 532.922 576.252 531.385 577.573L530.073 578.699ZM530.073 543.364C523.29 543.364 517.772 548.932 517.772 555.776 517.772 560.966 525.719 569.345 530.073 573.349 534.427 569.345 542.372 560.966 542.372 555.776 542.372 548.933 536.854 543.364 530.073 543.364Z" fill="#282D33" fill-rule="nonzero" fill-opacity="1"/><path d="M530.071 563.027C526.093 563.027 522.857 559.774 522.857 555.776 522.857 551.778 526.093 548.525 530.071 548.525 534.049 548.525 537.285 551.778 537.285 555.776 537.285 559.774 534.049 563.027 530.071 563.027ZM530.071 552.551C528.313 552.551 526.883 553.998 526.883 555.777 526.883 557.556 528.313 559.003 530.071 559.003 531.829 559.003 533.259 557.556 533.259 555.777 533.259 553.998 531.829 552.551 530.071 552.551Z" fill="#282D33" fill-rule="nonzero" fill-opacity="1"/><path d="M531.7 642.661 526.99 632.291 527.456 622.097 523.262 613.59 524.831 607.934 523.814 608.61 522.764 605.953 519.939 605.376 511.615 598.227 509.803 588.459 507.067 582.92 499.067 588.856 496 581.353 501.955 568.974 515.091 568.342 515.284 572.363 504.543 572.879 500.404 581.485 500.832 582.533 508.542 576.813 513.662 587.174 515.316 596.096 520.697 600.718 518.796 595.905 526.669 591.495 534.209 583.536 538.364 577.627 546.916 570.425 548.943 563.931 552.786 565.131 550.408 572.746 541.357 580.37 537.233 586.198 529.171 594.709 523.834 597.698 525.709 602.444 525.793 602.461 529.319 600.117 543.886 612.278 534.252 634.101 535.517 641.487 531.7 642.661ZM527.552 613.187 531.525 621.246 531.063 631.36 538.979 613.428 529.647 605.637 527.552 613.187Z" fill="#282D33" fill-rule="nonzero" fill-opacity="1"/><path d="M561.257 632.783 557.309 610.604 548.994 609.528 547.74 594.578 557.81 594.982 562.932 594.712 563.949 593.683 559.386 591.459 556.296 594.313 546.757 589.788 551.884 585.786 552.334 583.963 556.214 575.653 566.529 568.015 568.006 573.794 583.576 566.503 616.863 572.072 616.199 576.043 584.148 570.68 565.309 579.503 564.112 574.814 559.43 578.281 556.076 585.464 555.506 588.066 554.377 588.946 555.563 589.509 558.677 586.634 570.758 592.523 564.699 598.649 557.835 599.012 552.132 598.783 552.734 605.953 560.754 606.992 563.714 623.616 568.558 617.863 569.434 608.693 572.719 603.856 574.481 600.738 571.845 595.253 583.26 596.395 585.229 601.86 587.599 596.98 592.607 605.39 597.568 611.645 594.416 614.146 589.217 607.566 587.959 605.454 584.679 612.207 580.333 600.146 578.579 599.972 579.021 600.89 576.096 606.049 573.344 610.103 572.445 619.496Z" fill="#282D33" fill-rule="nonzero" fill-opacity="1"/><path d="M607.041 641.105 602.389 633.94 595.393 635.343 594.646 626.648 602.959 619.061 614.635 622.225 613.484 630.505 613.089 632.506 607.041 641.105ZM604.278 629.455 607.174 633.918 609.304 630.889 609.523 629.783 610.161 625.184 604.04 623.526 598.827 628.284 599.017 630.512 604.278 629.455Z" fill="#282D33" fill-rule="nonzero" fill-opacity="1"/></g></g></g></g></svg>