<svg width="130" height="128" xmlns="http://www.w3.org/2000/svg" xmlns:xlink="http://www.w3.org/1999/xlink" xml:space="preserve" overflow="hidden"><defs><clipPath id="clip0"><rect x="406" y="248" width="130" height="128"/></clipPath><clipPath id="clip1"><rect x="407" y="248" width="128" height="128"/></clipPath><clipPath id="clip2"><rect x="407" y="248" width="128" height="128"/></clipPath><clipPath id="clip3"><rect x="407" y="248" width="128" height="128"/></clipPath></defs><g clip-path="url(#clip0)" transform="translate(-406 -248)"><g clip-path="url(#clip1)"><g clip-path="url(#clip2)"><g clip-path="url(#clip3)"><path d="M512.118 293.329 508.118 293.329C508.118 276.297 494.429 262.44 477.601 262.44 460.773 262.44 447.083 276.296 447.083 293.329L443.083 293.329C443.083 274.092 458.567 258.44 477.601 258.44 496.634 258.44 512.118 274.092 512.118 293.329Z" fill="#282D33" fill-rule="nonzero" fill-opacity="1"/><path d="M497.097 305.599 493.193 304.733C493.996 301.113 494.403 297.276 494.403 293.329 494.403 276.586 486.71 262.44 477.602 262.44 468.489 262.44 460.79 276.586 460.79 293.329 460.79 296.976 461.139 300.542 461.828 303.927L457.908 304.725C457.166 301.079 456.79 297.245 456.79 293.329 456.79 273.766 465.932 258.44 477.602 258.44 489.266 258.44 498.403 273.765 498.403 293.329 498.402 297.566 497.963 301.694 497.097 305.599Z" fill="#282D33" fill-rule="nonzero" fill-opacity="1"/><path d="M509.891 305.688 506.145 304.286C507.455 300.788 508.119 297.101 508.119 293.328 508.119 276.975 495.501 263.551 479.602 262.505L479.602 304.104 475.602 304.104 475.602 258.439 477.602 258.439C496.634 258.439 512.119 274.09 512.119 293.328 512.118 297.583 511.369 301.741 509.891 305.688Z" fill="#282D33" fill-rule="nonzero" fill-opacity="1"/><path d="M509.39 306.922 445.808 306.922 445.324 305.619C443.838 301.62 443.084 297.485 443.084 293.329 443.084 289.166 443.839 285.03 445.327 281.037L445.812 279.735 509.39 279.735 509.875 281.036C511.363 285.028 512.117 289.164 512.117 293.329 512.117 297.498 511.362 301.634 509.875 305.621L509.39 306.922ZM448.62 302.922 506.581 302.922C507.602 299.789 508.117 296.569 508.117 293.329 508.117 290.093 507.6 286.871 506.581 283.735L448.621 283.735C447.6 286.873 447.084 290.093 447.084 293.329 447.084 296.56 447.6 299.78 448.62 302.922Z" fill="#282D33" fill-rule="nonzero" fill-opacity="1"/><path d="M505.538 365.561 410.583 365.561C408.607 365.561 407 363.946 407 361.959L407 322.438C407 320.454 408.607 318.839 410.583 318.839L505.538 318.839C507.514 318.839 509.12 320.453 509.12 322.438L509.12 361.959C509.12 363.945 507.514 365.561 505.538 365.561ZM411 361.561 505.12 361.561 505.12 322.839 411 322.839 411 361.561Z" fill="#282D33" fill-rule="nonzero" fill-opacity="1"/><path d="M416.989 329.734 424.433 329.734 424.433 333.734 416.989 333.734Z" fill="#282D33" fill-rule="nonzero" fill-opacity="1"/><path d="M429.438 329.734 436.882 329.734 436.882 333.734 429.438 333.734Z" fill="#282D33" fill-rule="nonzero" fill-opacity="1"/><path d="M441.892 329.734 449.332 329.734 449.332 333.734 441.892 333.734Z" fill="#282D33" fill-rule="nonzero" fill-opacity="1"/><path d="M454.343 329.734 461.782 329.734 461.782 333.734 454.343 333.734Z" fill="#282D33" fill-rule="nonzero" fill-opacity="1"/><path d="M466.794 329.734 474.232 329.734 474.232 333.734 466.794 333.734Z" fill="#282D33" fill-rule="nonzero" fill-opacity="1"/><path d="M479.245 329.734 486.685 329.734 486.685 333.734 479.245 333.734Z" fill="#282D33" fill-rule="nonzero" fill-opacity="1"/><path d="M491.689 329.734 499.131 329.734 499.131 333.734 491.689 333.734Z" fill="#282D33" fill-rule="nonzero" fill-opacity="1"/><path d="M416.989 340.2 424.433 340.2 424.433 344.2 416.989 344.2Z" fill="#282D33" fill-rule="nonzero" fill-opacity="1"/><path d="M429.438 340.2 436.882 340.2 436.882 344.2 429.438 344.2Z" fill="#282D33" fill-rule="nonzero" fill-opacity="1"/><path d="M441.892 340.2 449.332 340.2 449.332 344.2 441.892 344.2Z" fill="#282D33" fill-rule="nonzero" fill-opacity="1"/><path d="M454.343 340.2 461.782 340.2 461.782 344.2 454.343 344.2Z" fill="#282D33" fill-rule="nonzero" fill-opacity="1"/><path d="M466.794 340.2 474.232 340.2 474.232 344.2 466.794 344.2Z" fill="#282D33" fill-rule="nonzero" fill-opacity="1"/><path d="M479.245 340.2 486.685 340.2 486.685 344.2 479.245 344.2Z" fill="#282D33" fill-rule="nonzero" fill-opacity="1"/><path d="M491.689 340.2 499.131 340.2 499.131 344.2 491.689 344.2Z" fill="#282D33" fill-rule="nonzero" fill-opacity="1"/><path d="M416.989 350.664 424.433 350.664 424.433 354.664 416.989 354.664Z" fill="#282D33" fill-rule="nonzero" fill-opacity="1"/><path d="M429.438 350.664 436.882 350.664 436.882 354.664 429.438 354.664Z" fill="#282D33" fill-rule="nonzero" fill-opacity="1"/><path d="M441.892 350.664 486.796 350.664 486.796 354.664 441.892 354.664Z" fill="#282D33" fill-rule="nonzero" fill-opacity="1"/><path d="M491.689 350.664 499.131 350.664 499.131 354.664 491.689 354.664Z" fill="#282D33" fill-rule="nonzero" fill-opacity="1"/><path d="M446.983 306.869 425.201 306.869C420.499 306.869 416.674 303.01 416.674 298.266 416.674 293.522 420.499 289.662 425.201 289.662L437.728 289.662 437.728 293.662 425.201 293.662C422.704 293.662 420.674 295.727 420.674 298.266 420.674 300.804 422.705 302.869 425.201 302.869L446.983 302.869 446.983 306.869Z" fill="#282D33" fill-rule="nonzero" fill-opacity="1"/><path d="M520.089 332.984 509.115 332.984 509.115 328.984 520.089 328.984C526.106 328.984 531 324.023 531 317.925 531 311.828 526.105 306.868 520.089 306.868L506.818 306.868 506.818 302.868 520.089 302.868C528.311 302.868 535 309.623 535 317.925 535 326.229 528.311 332.984 520.089 332.984Z" fill="#282D33" fill-rule="nonzero" fill-opacity="1"/></g></g></g></g></svg>