<svg width="128" height="130" xmlns="http://www.w3.org/2000/svg" xmlns:xlink="http://www.w3.org/1999/xlink" xml:space="preserve" overflow="hidden"><defs><clipPath id="clip0"><rect x="212" y="526" width="128" height="130"/></clipPath><clipPath id="clip1"><rect x="212" y="527" width="128" height="128"/></clipPath><clipPath id="clip2"><rect x="212" y="527" width="128" height="128"/></clipPath><clipPath id="clip3"><rect x="212" y="527" width="128" height="128"/></clipPath></defs><g clip-path="url(#clip0)" transform="translate(-212 -526)"><g clip-path="url(#clip1)"><g clip-path="url(#clip2)"><g clip-path="url(#clip3)"><path d="M271.805 527 275.805 527 275.805 534.729 271.805 534.729Z" fill="#282D33" fill-rule="nonzero" fill-opacity="1"/><path d="M255.576 531.071 258.237 538.331 254.482 539.708 251.82 532.448Z" fill="#282D33" fill-rule="nonzero" fill-opacity="1"/><path d="M237.97 541.769 242.969 547.687 239.914 550.268 234.914 544.35Z" fill="#282D33" fill-rule="nonzero" fill-opacity="1"/><path d="M225.111 557.805 231.848 561.669 229.857 565.139 223.12 561.274Z" fill="#282D33" fill-rule="nonzero" fill-opacity="1"/><path d="M218.556 577.241 226.222 578.585 225.532 582.524 217.865 581.18Z" fill="#282D33" fill-rule="nonzero" fill-opacity="1"/><path d="M314.769 621.726 319.769 627.647 316.712 630.228 311.713 624.306Z" fill="#282D33" fill-rule="nonzero" fill-opacity="1"/><path d="M324.823 606.859 331.561 610.724 329.571 614.193 322.833 610.327Z" fill="#282D33" fill-rule="nonzero" fill-opacity="1"/><path d="M329.159 589.466 336.825 590.813 336.133 594.753 328.467 593.405Z" fill="#282D33" fill-rule="nonzero" fill-opacity="1"/><path d="M334.911 570.326 335.598 574.266 327.928 575.604 327.241 571.664Z" fill="#282D33" fill-rule="nonzero" fill-opacity="1"/><path d="M326.04 551.725 328.029 555.195 321.288 559.057 319.3 555.586Z" fill="#282D33" fill-rule="nonzero" fill-opacity="1"/><path d="M311.3 537.257 314.355 539.84 309.352 545.756 306.297 543.174Z" fill="#282D33" fill-rule="nonzero" fill-opacity="1"/><path d="M292.469 528.669 296.223 530.048 293.556 537.309 289.802 535.931Z" fill="#282D33" fill-rule="nonzero" fill-opacity="1"/><path d="M308.91 655 304.91 655 304.91 616.917 305.5 616.33C313.313 608.558 317.613 598.232 317.613 587.257 317.613 564.557 299.008 546.09 276.138 546.09 253.265 546.09 234.657 564.557 234.657 587.257 234.657 587.874 234.681 588.487 234.705 589.1L234.728 589.681 234.437 590.213 222.132 611.381 230.756 611.381 230.756 630.422C230.756 635.74 235.117 640.067 240.477 640.067L261.043 640.067 261.043 655 257.043 655 257.043 644.066 240.477 644.066C232.912 644.066 226.756 637.945 226.756 630.421L226.756 615.381 215.178 615.381 230.688 588.705C230.67 588.216 230.657 587.738 230.657 587.257 230.657 562.352 251.06 542.09 276.138 542.09 301.213 542.09 321.613 562.352 321.613 587.257 321.613 599.026 317.109 610.111 308.91 618.569L308.91 655Z" fill="#282D33" fill-rule="nonzero" fill-opacity="1"/><path d="M275.621 622.607C256.247 622.607 240.485 606.951 240.485 587.708L244.485 587.708C244.485 604.746 258.452 618.607 275.621 618.607 292.787 618.607 306.752 604.746 306.752 587.708 306.752 570.671 292.787 556.811 275.621 556.811L275.621 552.811C294.992 552.811 310.752 568.466 310.752 587.708 310.752 606.951 294.992 622.607 275.621 622.607Z" fill="#282D33" fill-rule="nonzero" fill-opacity="1"/><path d="M244.485 587.708 240.485 587.708C240.485 587.008 240.507 586.313 240.548 585.623L244.541 585.856C244.505 586.469 244.485 587.086 244.485 587.708Z" fill="#282D33" fill-rule="nonzero" fill-opacity="1"/><path d="M244.94 582.419 240.999 581.734C241.225 580.432 241.529 579.13 241.903 577.865L245.739 578.998C245.409 580.117 245.14 581.268 244.94 582.419ZM246.927 575.694 243.246 574.128C243.762 572.916 244.355 571.719 245.008 570.569L248.486 572.547C247.907 573.563 247.383 574.622 246.927 575.694ZM250.394 569.596 247.164 567.237C247.942 566.172 248.789 565.14 249.682 564.171L252.624 566.88C251.833 567.738 251.083 568.652 250.394 569.596ZM255.145 564.43 252.525 561.408C253.52 560.546 254.575 559.73 255.662 558.984L257.927 562.281C256.962 562.942 256.027 563.666 255.145 564.43ZM260.929 560.458 259.05 556.927C260.215 556.307 261.425 555.748 262.649 555.265L264.118 558.986C263.034 559.414 261.961 559.91 260.929 560.458ZM267.455 557.883 266.416 554.021C267.688 553.679 268.995 553.405 270.298 553.208L270.896 557.163C269.74 557.337 268.582 557.58 267.455 557.883Z" fill="#282D33" fill-rule="nonzero" fill-opacity="1"/><path d="M273.769 556.864 273.536 552.871C274.226 552.83 274.922 552.81 275.621 552.81L275.621 556.81C275 556.81 274.382 556.828 273.769 556.864Z" fill="#282D33" fill-rule="nonzero" fill-opacity="1"/><path d="M275.621 611.861C262.215 611.861 251.309 601.027 251.309 587.71 251.309 574.392 262.215 563.556 275.621 563.556 289.025 563.556 299.93 574.391 299.93 587.71L295.93 587.71C295.93 576.597 286.821 567.556 275.621 567.556 264.421 567.556 255.309 576.597 255.309 587.71 255.309 598.821 264.421 607.861 275.621 607.861L275.621 611.861Z" fill="#282D33" fill-rule="nonzero" fill-opacity="1"/><path d="M299.836 589.855 295.852 589.501C295.905 588.911 295.93 588.308 295.93 587.71L299.93 587.71C299.93 588.426 299.898 589.147 299.836 589.855Z" fill="#282D33" fill-rule="nonzero" fill-opacity="1"/><path d="M282.143 610.982 281.079 607.127C282.39 606.766 283.669 606.269 284.882 605.649L286.698 609.213C285.244 609.954 283.711 610.55 282.143 610.982ZM290.807 606.57 288.317 603.439C289.381 602.592 290.366 601.633 291.241 600.588L294.305 603.158C293.258 604.409 292.08 605.557 290.807 606.57ZM297.053 599.114 293.533 597.212C294.181 596.014 294.707 594.747 295.096 593.447L298.928 594.592C298.461 596.154 297.83 597.675 297.053 599.114Z" fill="#282D33" fill-rule="nonzero" fill-opacity="1"/><path d="M275.621 611.861 275.621 607.861C276.221 607.861 276.825 607.836 277.418 607.784L277.76 611.77C277.055 611.831 276.334 611.861 275.621 611.861Z" fill="#282D33" fill-rule="nonzero" fill-opacity="1"/><path d="M275.619 601.09C268.195 601.09 262.154 595.087 262.154 587.708 262.154 580.329 268.195 574.326 275.619 574.326 283.045 574.326 289.084 580.329 289.084 587.708 289.084 595.087 283.045 601.09 275.619 601.09ZM275.619 578.326C270.4 578.326 266.154 582.534 266.154 587.708 266.154 592.881 270.4 597.09 275.619 597.09 280.838 597.09 285.084 592.881 285.084 587.708 285.084 582.535 280.838 578.326 275.619 578.326Z" fill="#282D33" fill-rule="nonzero" fill-opacity="1"/></g></g></g></g></svg>