<svg width="129" height="129" xmlns="http://www.w3.org/2000/svg" xmlns:xlink="http://www.w3.org/1999/xlink" xml:space="preserve" overflow="hidden"><defs><clipPath id="clip0"><rect x="68" y="533" width="129" height="129"/></clipPath><clipPath id="clip1"><rect x="69" y="534" width="128" height="128"/></clipPath><clipPath id="clip2"><rect x="69" y="534" width="128" height="128"/></clipPath><clipPath id="clip3"><rect x="69" y="534" width="128" height="128"/></clipPath></defs><g clip-path="url(#clip0)" transform="translate(-68 -533)"><g clip-path="url(#clip1)"><g clip-path="url(#clip2)"><g clip-path="url(#clip3)"><path d="M175.756 646.152 69 646.152 122.384 592.64 175.756 646.152ZM78.668 642.142 166.09 642.142 122.384 598.319 78.668 642.142Z" fill="#282D33" fill-rule="nonzero" fill-opacity="1"/><path d="M76.794 626.041 73.954 623.208 123.566 573.479 150.794 600.783 147.954 603.615 123.565 579.159Z" fill="#282D33" fill-rule="nonzero" fill-opacity="1"/><path d="M149.104 570.033 129.28 570.033 129.28 566.021 142.941 566.021 141.41 562.566 142.941 559.112 121.444 559.112 121.444 555.101 149.104 555.101 145.798 562.566Z" fill="#282D33" fill-rule="nonzero" fill-opacity="1"/><path d="M185.372 597.301 181.36 597.301 181.36 580.056 164.161 580.056 164.161 576.044 185.372 576.044Z" fill="#282D33" fill-rule="nonzero" fill-opacity="1"/><path d="M91.968 646.843 89.128 644.011 123.196 609.863 135.997 622.696 181.307 577.276 184.146 580.109 135.997 628.376 123.196 615.543Z" fill="#282D33" fill-rule="nonzero" fill-opacity="1"/><path d="M197 646.152 125.971 646.152 161.487 610.55 197 646.152ZM135.639 642.142 187.332 642.142 161.487 616.23 135.639 642.142Z" fill="#282D33" fill-rule="nonzero" fill-opacity="1"/><path d="M121.44 549.157 125.451 549.157 125.451 577.343 121.44 577.343Z" fill="#282D33" fill-rule="nonzero" fill-opacity="1"/></g></g></g></g></svg>