<svg width="153" height="153" xmlns="http://www.w3.org/2000/svg" xmlns:xlink="http://www.w3.org/1999/xlink" xml:space="preserve" overflow="hidden"><defs><clipPath id="clip0"><rect x="1076" y="509" width="153" height="153"/></clipPath><clipPath id="clip1"><rect x="1077" y="510" width="152" height="152"/></clipPath><clipPath id="clip2"><rect x="1077" y="510" width="152" height="152"/></clipPath><clipPath id="clip3"><rect x="1077" y="510" width="152" height="152"/></clipPath></defs><g clip-path="url(#clip0)" transform="translate(-1076 -509)"><g clip-path="url(#clip1)"><g clip-path="url(#clip2)"><g clip-path="url(#clip3)"><path d="M1119.41 590.438C1110.38 581.82 1097.6 579.57 1090.3 579.008 1096.53 575.208 1102.79 571.408 1109.03 567.608 1112.39 565.571 1109.32 560.282 1105.94 562.334 1097.31 567.608 1088.67 572.852 1080.04 578.111 1078.64 578.962 1078.06 580.847 1078.95 582.276 1084.2 590.91 1089.45 599.528 1094.71 608.177 1096.74 611.536 1102.03 608.466 1099.98 605.091 1095.91 598.388 1091.84 591.685 1087.75 584.997 1093.49 585.21 1106.67 586.669 1115.26 594.862 1120.62 599.984 1123.41 607.052 1123.41 615.838L1123.41 657.638 1129.38 657.638 1129.38 615.838C1129.36 605.319 1126.02 596.762 1119.41 590.438Z" fill="#000000" fill-rule="nonzero" fill-opacity="1"/><path d="M1181.35 549.003C1184.13 551.785 1188.46 547.468 1185.66 544.686 1175.85 534.867 1166.03 525.048 1156.22 515.244 1155.04 514.058 1153.08 514.058 1151.91 515.244 1141.93 525.215 1131.96 535.186 1121.98 545.158 1119.2 547.939 1123.51 552.271 1126.29 549.474 1134.47 541.297 1142.65 533.104 1150.84 524.926L1150.84 657.638 1156.95 657.638 1156.95 524.622C1165.08 532.739 1173.22 540.871 1181.35 549.003Z" fill="#000000" fill-rule="nonzero" fill-opacity="1"/><path d="M1225.28 590.119C1215.38 588.067 1205.49 586.015 1195.59 583.963 1191.74 583.158 1190.12 589.04 1193.98 589.846 1201.72 591.442 1209.44 593.053 1217.19 594.664 1212.98 596.503 1206.55 599.878 1200.1 605.502 1190.13 614.166 1178.28 630.004 1178.28 656.209L1178.28 657.653 1184.25 657.653 1184.25 656.209C1184.25 618.665 1209.97 604.24 1219.88 600.09 1218.38 607.371 1216.86 614.652 1215.34 621.948 1214.53 625.794 1220.41 627.42 1221.22 623.559 1223.27 613.664 1225.32 603.769 1227.37 593.874 1227.74 592.338 1226.98 590.469 1225.28 590.119Z" fill="#000000" fill-rule="nonzero" fill-opacity="1"/></g></g></g></g></svg>