<svg width="129" height="130" xmlns="http://www.w3.org/2000/svg" xmlns:xlink="http://www.w3.org/1999/xlink" xml:space="preserve" overflow="hidden"><defs><clipPath id="clip0"><rect x="356" y="38" width="129" height="130"/></clipPath><clipPath id="clip1"><rect x="357" y="39" width="128" height="128"/></clipPath><clipPath id="clip2"><rect x="357" y="39" width="128" height="128"/></clipPath><clipPath id="clip3"><rect x="357" y="39" width="128" height="128"/></clipPath></defs><g clip-path="url(#clip0)" transform="translate(-356 -38)"><g clip-path="url(#clip1)"><g clip-path="url(#clip2)"><g clip-path="url(#clip3)"><path d="M428.311 138.492C427.325 138.493 426.346 138.26 425.441 137.799L419.767 134.935C419.554 134.865 419.342 134.789 419.134 134.712L415.528 133.374 418.695 131.19C419.046 130.948 419.317 130.636 419.503 130.262L421.052 127.137C421.649 125.932 421.164 124.458 419.971 123.856 419.407 123.57 418.762 123.522 418.161 123.723 417.552 123.926 417.058 124.358 416.771 124.939L415.224 128.059C415.033 128.451 414.949 128.874 414.98 129.311L415.234 132.832 405.918 128.124 408.814 126.228C409.176 125.991 409.459 125.672 409.651 125.282L414.166 116.174C414.762 114.965 414.28 113.487 413.091 112.885 412.528 112.602 411.887 112.555 411.285 112.754 410.675 112.957 410.181 113.39 409.892 113.971L405.383 123.083C405.187 123.478 405.104 123.896 405.135 124.329L405.388 127.85 396.068 123.141 398.971 121.244C399.325 121.013 399.613 120.687 399.802 120.304L403.461 112.922C404.058 111.715 403.577 110.242 402.389 109.644 401.822 109.356 401.183 109.308 400.583 109.506 399.974 109.708 399.479 110.142 399.189 110.726L395.532 118.104C395.341 118.488 395.257 118.918 395.288 119.349L395.538 122.866 385.846 117.976 388.719 116.074C389.094 115.826 389.379 115.507 389.567 115.126L391.114 111.999C391.714 110.792 391.234 109.321 390.046 108.719 389.48 108.431 388.837 108.384 388.237 108.583 387.628 108.785 387.133 109.218 386.844 109.802L385.299 112.922C385.111 113.302 385.026 113.711 385.045 114.141L385.227 118.053 381.952 115.907C380.648 115.053 379.53 113.977 378.628 112.711L381.888 110.391C381.927 110.447 381.967 110.501 382.008 110.556L383.26 108.028C384.026 106.48 385.345 105.329 386.976 104.787 388.597 104.248 390.33 104.376 391.855 105.151 393.686 106.079 394.883 107.782 395.251 109.668L395.605 108.952C396.371 107.405 397.692 106.253 399.322 105.711 400.942 105.173 402.672 105.302 404.195 106.075 405.983 106.977 407.169 108.622 407.567 110.457 408.252 109.785 409.085 109.273 410.02 108.962 411.641 108.423 413.373 108.548 414.896 109.318 418.035 110.908 419.315 114.78 417.751 117.95L416.743 119.984C416.793 119.965 416.844 119.948 416.895 119.931 418.516 119.389 420.249 119.517 421.774 120.287 424.92 121.878 426.203 125.748 424.635 128.915L423.085 132.041C423.073 132.065 423.061 132.089 423.049 132.113L427.248 134.232C427.816 134.52 428.453 134.568 429.051 134.372 429.66 134.17 430.155 133.738 430.446 133.154 430.861 132.315 430.76 131.288 430.189 130.541L429.273 129.342 430.173 128.131C430.356 127.886 430.542 127.598 430.742 127.25L431.687 125.609 437.104 128.348C437.67 128.635 438.312 128.68 438.914 128.479 439.522 128.276 440.017 127.845 440.304 127.265 440.899 126.056 440.417 124.579 439.228 123.979L433.757 121.204 435.934 116.861 446.409 122.166C446.973 122.45 447.617 122.495 448.219 122.296 448.827 122.093 449.321 121.66 449.606 121.081 450.21 119.866 449.729 118.393 448.538 117.792L438.148 112.538 438.867 110.821C438.957 110.607 439.025 110.391 439.094 110.176L439.802 107.93 454.673 115.453C455.236 115.739 455.871 115.787 456.469 115.589 457.082 115.386 457.58 114.951 457.87 114.365 458.468 113.157 457.987 111.684 456.799 111.083L434.995 100.048C433.887 99.982 432.763 99.824 431.649 99.579 427.323 98.613 423.463 96.327 420.877 93.233L414.8 93.912 414.762 94.117C414.24 96.696 412.765 98.89 410.603 100.32 408.465 101.734 405.909 102.228 403.404 101.714L400.914 101.2C400.768 101.166 400.684 101.142 400.599 101.118L398.761 100.643 399.051 98.759 402.384 82.354 414.612 79.805 420.621 78.637 422.968 79.162 422.778 78.553 412.973 77.562 407.771 77.114 390.068 83.071 388.793 79.279 407.285 73.056 413.347 73.579 425.822 74.88 428.855 84.579 420.565 82.723 415.405 83.727 405.782 85.732 403.367 97.621 404.214 97.796C405.669 98.095 407.155 97.807 408.4 96.983 409.669 96.144 410.536 94.853 410.839 93.348L411.422 90.265 422.716 89.001 423.4 89.956C425.392 92.739 428.715 94.823 432.52 95.672 433.545 95.899 434.583 96.033 435.599 96.071L436.036 96.088 458.608 107.513C461.747 109.101 463.027 112.97 461.459 116.139 460.689 117.691 459.365 118.843 457.73 119.385 456.449 119.807 455.103 119.815 453.846 119.419 453.946 120.565 453.743 121.751 453.196 122.854 452.436 124.393 451.121 125.543 449.493 126.087 447.871 126.626 446.137 126.504 444.611 125.733L444.538 125.7C444.621 126.814 444.418 127.964 443.892 129.034 443.126 130.581 441.81 131.729 440.182 132.272 438.563 132.813 436.829 132.687 435.303 131.918L434.68 131.603C434.759 132.733 434.547 133.885 434.032 134.928 433.261 136.478 431.939 137.628 430.308 138.168 429.653 138.385 428.98 138.492 428.311 138.492Z" fill="#282D33" fill-rule="nonzero" fill-opacity="1"/><path d="M457.356 111.362 434.994 100.051C434.917 100.046 434.84 100.041 434.763 100.036L434.472 100.017C434.188 99.989 433.897 99.957 433.608 99.921L433.515 99.909C433.262 99.876 432.992 99.833 432.716 99.787L432.563 99.76C432.269 99.709 431.951 99.65 431.632 99.576 431.343 99.511 431.051 99.438 430.762 99.365L430.244 99.213C430.107 99.174 429.971 99.134 429.833 99.089 429.703 99.049 429.547 98.994 429.387 98.936L429.318 98.914C429.208 98.878 429.096 98.842 428.989 98.803L428.182 98.49C427.953 98.393 427.768 98.312 427.58 98.227L428.281 96.349 427.487 98.185 427.352 98.125C427.237 98.072 427.12 98.015 427.002 97.957L426.524 97.715C426.358 97.635 426.123 97.506 425.894 97.372 425.894 97.371 425.823 97.338 425.746 97.288 425.621 97.221 425.424 97.099 425.225 96.975 425.16 96.943 425.079 96.892 424.994 96.828 423.554 95.892 421.853 94.243 420.909 93.277L414.798 93.922 414.762 94.117C414.24 96.696 412.764 98.89 410.602 100.32 408.465 101.733 405.909 102.229 403.404 101.714L400.914 101.199C400.774 101.167 400.688 101.143 400.602 101.119L398.759 100.647 399.05 98.759 402.381 82.363 403.779 82.061 420.478 78.609 440.229 83.017 453.33 78.611 454.605 82.403 440.446 87.166 420.446 82.7 405.778 85.733 403.363 97.62 404.211 97.795C405.665 98.093 407.151 97.806 408.396 96.982 409.665 96.143 410.532 94.853 410.835 93.347L411.42 90.255 422.462 89.091 423.144 89.825C423.83 90.566 425.902 92.671 427.234 93.511L427.422 93.63C427.566 93.72 427.677 93.788 427.793 93.853 427.807 93.859 427.86 93.887 427.91 93.916 428.071 94.011 428.224 94.094 428.38 94.172 428.457 94.211 428.519 94.243 428.572 94.272L429.021 94.49C429.144 94.544 429.213 94.574 429.282 94.607 429.39 94.656 429.545 94.723 429.7 94.789L430.681 95.152C430.844 95.211 430.942 95.247 431.039 95.277 431.16 95.316 431.253 95.342 431.347 95.369L431.502 95.414C431.55 95.427 431.647 95.456 431.742 95.486 432.001 95.554 432.26 95.618 432.522 95.677 432.774 95.735 433.022 95.781 433.274 95.824 433.599 95.879 433.823 95.916 434.055 95.946L434.11 95.953C434.343 95.982 434.58 96.008 434.811 96.031L435.017 96.044C435.208 96.056 435.398 96.068 435.581 96.074L436.022 96.09 457.667 107.038 462.803 105.311 464.076 109.103 457.356 111.362Z" fill="#282D33" fill-rule="nonzero" fill-opacity="1"/><path d="M417.354 135.601C417.353 135.601 417.354 135.601 417.354 135.601 416.368 135.601 415.378 135.365 414.494 134.917 411.354 133.326 410.074 129.454 411.639 126.284L413.185 123.163C414.272 120.964 416.466 119.598 418.91 119.598 419.899 119.598 420.889 119.835 421.776 120.285 424.921 121.874 426.205 125.744 424.634 128.913L423.084 132.037C421.99 134.234 419.795 135.601 417.354 135.601ZM418.908 123.599C417.997 123.599 417.178 124.112 416.769 124.938L415.222 128.057C414.625 129.267 415.108 130.745 416.299 131.348 417.45 131.93 418.922 131.418 419.5 130.256L421.049 127.135C421.646 125.93 421.161 124.457 419.968 123.855 419.634 123.685 419.277 123.599 418.908 123.599Z" fill="#282D33" fill-rule="nonzero" fill-opacity="1"/><path d="M387.428 120.46 387.428 120.46C386.442 120.46 385.453 120.225 384.568 119.778 381.42 118.19 380.14 114.316 381.715 111.141L383.259 108.024C384.347 105.824 386.539 104.458 388.98 104.458 389.971 104.458 390.965 104.697 391.855 105.148 394.993 106.736 396.27 110.606 394.7 113.772L393.156 116.893C392.07 119.092 389.876 120.46 387.428 120.46ZM388.979 108.459C388.071 108.459 387.252 108.973 386.843 109.799L385.298 112.918C384.696 114.131 385.177 115.606 386.368 116.206 387.529 116.792 388.995 116.281 389.567 115.122L391.113 111.996C391.713 110.789 391.232 109.318 390.045 108.717 389.708 108.546 389.351 108.459 388.979 108.459Z" fill="#282D33" fill-rule="nonzero" fill-opacity="1"/><path d="M407.511 130.622C407.51 130.622 407.51 130.622 407.511 130.622 406.522 130.622 405.531 130.384 404.645 129.933 401.5 128.34 400.223 124.468 401.799 121.302L406.307 112.196C407.395 109.997 409.59 108.631 412.035 108.631 413.021 108.631 414.011 108.867 414.896 109.315 418.035 110.904 419.315 114.776 417.751 117.946L413.236 127.056C412.147 129.254 409.953 130.622 407.511 130.622ZM412.034 112.63C411.121 112.63 410.301 113.143 409.891 113.969L405.382 123.081C404.779 124.29 405.262 125.762 406.454 126.365 407.618 126.956 409.075 126.439 409.65 125.279L414.164 116.172C414.76 114.963 414.278 113.485 413.089 112.883 412.759 112.715 412.402 112.63 412.034 112.63Z" fill="#282D33" fill-rule="nonzero" fill-opacity="1"/><path d="M397.667 125.64C397.667 125.64 397.667 125.64 397.667 125.64 396.677 125.64 395.685 125.402 394.797 124.951 391.664 123.365 390.384 119.496 391.946 116.329L395.604 108.949C396.692 106.751 398.883 105.384 401.324 105.384 402.313 105.384 403.306 105.622 404.195 106.073 407.331 107.653 408.613 111.522 407.047 114.696L403.389 122.074C402.299 124.272 400.106 125.64 397.667 125.64ZM401.324 109.384C400.417 109.384 399.598 109.898 399.189 110.724L395.532 118.102C394.937 119.307 395.419 120.781 396.607 121.382 396.943 121.553 397.298 121.639 397.667 121.639 398.575 121.639 399.394 121.124 399.804 120.296L403.461 112.921C404.058 111.713 403.577 110.241 402.39 109.643 402.049 109.47 401.692 109.384 401.324 109.384Z" fill="#282D33" fill-rule="nonzero" fill-opacity="1"/><path d="M464.35 116.24 451.453 77.088 472.104 68.488 485 107.649 464.35 116.24ZM456.413 79.356 466.799 110.887 480.04 105.378 469.654 73.841 456.413 79.356Z" fill="#282D33" fill-rule="nonzero" fill-opacity="1"/><path d="M379.112 119.688 357 111.547 371.504 67.508 393.612 75.649 379.112 119.688ZM362.008 109.129 376.609 114.504 388.604 78.067 374.008 72.692 362.008 109.129Z" fill="#282D33" fill-rule="nonzero" fill-opacity="1"/><path d="M370.832 103.839 375.399 105.377 374.123 109.169 369.556 107.632Z" fill="#282D33" fill-rule="nonzero" fill-opacity="1"/><path d="M471.842 101.247 473.09 105.047 469.161 106.337 467.913 102.537Z" fill="#282D33" fill-rule="nonzero" fill-opacity="1"/></g></g></g></g></svg>