<svg width="130" height="130" xmlns="http://www.w3.org/2000/svg" xmlns:xlink="http://www.w3.org/1999/xlink" xml:space="preserve" overflow="hidden"><defs><clipPath id="clip0"><rect x="854" y="534" width="130" height="130"/></clipPath><clipPath id="clip1"><rect x="855" y="535" width="128" height="128"/></clipPath><clipPath id="clip2"><rect x="855" y="535" width="128" height="128"/></clipPath><clipPath id="clip3"><rect x="855" y="535" width="128" height="128"/></clipPath></defs><g clip-path="url(#clip0)" transform="translate(-854 -534)"><g clip-path="url(#clip1)"><g clip-path="url(#clip2)"><g clip-path="url(#clip3)"><path d="M982.998 598.443 965.269 598.443 965.269 552.1C965.269 547.907 968.714 544.496 972.951 544.496L975.316 544.496C979.552 544.496 982.999 547.907 982.999 552.1L982.999 598.443ZM969.275 594.436 978.99 594.436 978.99 552.1C978.99 550.117 977.342 548.503 975.315 548.503L972.95 548.503C970.924 548.503 969.275 550.117 969.275 552.1L969.275 594.436Z" fill="#282D33" fill-rule="nonzero" fill-opacity="1"/><path d="M981.341 641.442 966.925 641.442 966.925 597.874 970.932 597.874 970.932 637.435 977.333 637.435 977.333 597.874 981.341 597.874Z" fill="#282D33" fill-rule="nonzero" fill-opacity="1"/><path d="M959.898 591.715 955.89 591.715 955.89 562.555C955.89 558.363 959.336 554.951 963.572 554.951L980.994 554.951 980.994 558.958 963.572 558.958C961.546 558.958 959.898 560.571 959.898 562.554L959.898 591.715Z" fill="#282D33" fill-rule="nonzero" fill-opacity="1"/><path d="M967.271 594.668 981.233 594.668 981.233 598.675 967.271 598.675Z" fill="#282D33" fill-rule="nonzero" fill-opacity="1"/><path d="M967.271 637.346 981.233 637.346 981.233 641.353 967.271 641.353Z" fill="#282D33" fill-rule="nonzero" fill-opacity="1"/><path d="M976.282 660.73 972.275 660.73C972.275 657.388 970.563 653.306 969.606 652.921L968.09 652.54 968.107 650.982 968.107 644.036 972.115 644.036 972.115 649.782C975.008 651.96 976.282 657.742 976.282 660.73Z" fill="#282D33" fill-rule="nonzero" fill-opacity="1"/><path d="M976.282 660.73 972.275 660.73C972.275 657.742 973.55 651.959 976.447 649.782L976.447 644.036 980.454 644.036 980.454 652.546 978.938 652.927C977.998 653.307 976.282 657.389 976.282 660.73Z" fill="#282D33" fill-rule="nonzero" fill-opacity="1"/><path d="M948.097 663 855.002 663 855.002 535 913.713 535 913.713 539.007 859.009 539.007 859.009 658.992 944.089 658.992 944.089 568.946 948.097 568.946Z" fill="#282D33" fill-rule="nonzero" fill-opacity="1"/><path d="M947.329 562.469 920.748 562.469 920.748 536.246 947.329 562.469ZM924.756 558.462 937.562 558.462 924.756 545.829 924.756 558.462Z" fill="#282D33" fill-rule="nonzero" fill-opacity="1"/><path d="M869.849 562.902 897.432 562.902 897.432 566.909 869.849 566.909Z" fill="#282D33" fill-rule="nonzero" fill-opacity="1"/><path d="M869.343 579.8 927.907 579.8 927.907 583.807 869.343 583.807Z" fill="#282D33" fill-rule="nonzero" fill-opacity="1"/><path d="M869.343 594.145 927.907 594.145 927.907 598.152 869.343 598.152Z" fill="#282D33" fill-rule="nonzero" fill-opacity="1"/><path d="M869.343 608.49 927.907 608.49 927.907 612.497 869.343 612.497Z" fill="#282D33" fill-rule="nonzero" fill-opacity="1"/><path d="M869.343 622.835 927.501 622.835 927.501 626.842 869.343 626.842Z" fill="#282D33" fill-rule="nonzero" fill-opacity="1"/><path d="M869.343 637.305 888.175 637.305 888.175 641.312 869.343 641.312Z" fill="#282D33" fill-rule="nonzero" fill-opacity="1"/></g></g></g></g></svg>