<svg width="132" height="130" xmlns="http://www.w3.org/2000/svg" xmlns:xlink="http://www.w3.org/1999/xlink" xml:space="preserve" overflow="hidden"><defs><clipPath id="clip0"><rect x="1020" y="276" width="132" height="130"/></clipPath><clipPath id="clip1"><rect x="1021" y="276" width="131" height="130"/></clipPath><clipPath id="clip2"><rect x="1021" y="276" width="131" height="130"/></clipPath><clipPath id="clip3"><rect x="1021" y="276" width="131" height="130"/></clipPath></defs><g clip-path="url(#clip0)" transform="translate(-1020 -276)"><g clip-path="url(#clip1)"><g clip-path="url(#clip2)"><g clip-path="url(#clip3)"><path d="M128.361 122.856 1.63866 122.856C0.733463 122.856 0 122.123 0 121.217L0 82.9777C0 82.3563 0.351328 81.7887 0.907161 81.5115L32.5877 65.7082C33.095 65.4546 33.6987 65.4821 34.1811 65.781 34.6635 66.0799 34.9578 66.6069 34.9578 67.1745L34.9578 80.329 64.2682 65.7076C64.7755 65.4539 65.3785 65.4814 65.8616 65.7803 66.344 66.0792 66.6383 66.6062 66.6383 67.1738L66.6383 80.3283 74.7949 76.2599 74.7949 35.9954C74.7949 35.0902 75.5284 34.3568 76.4336 34.3568L82.3812 34.3568C83.2864 34.3568 84.0199 35.0902 84.0199 35.9954L84.0199 71.6592 91.7576 67.7992 93.1204 8.74454C93.1413 7.85442 93.8682 7.14389 94.759 7.14389L109.046 7.14389C109.936 7.14389 110.664 7.85442 110.685 8.74454L112.177 73.4165 127.631 65.7076C128.138 65.4539 128.741 65.4814 129.224 65.7803 129.706 66.0792 130.001 66.6062 130.001 67.1738L130.001 121.217C130 122.123 129.267 122.856 128.361 122.856ZM3.27732 119.579 126.723 119.579 126.723 69.8232 97.4117 84.4446C97.1718 84.5646 96.922 84.6177 96.6513 84.617 96.357 84.6118 96.0326 84.5403 95.7599 84.3719 95.2775 84.073 94.9832 83.546 94.9832 82.9784L94.9832 69.8527 83.1278 75.7663C83.1167 75.7722 83.1062 75.7775 83.0957 75.7827L77.171 78.7382C77.1664 78.7402 77.1618 78.7428 77.1572 78.7454L65.7312 84.4446C65.2232 84.6983 64.6208 84.6714 64.1377 84.3719 63.6553 84.073 63.361 83.546 63.361 82.9784L63.361 69.8239 34.0507 84.4453C33.5427 84.699 32.9403 84.6721 32.4572 84.3725 31.9748 84.0737 31.6805 83.5467 31.6805 82.979L31.6805 69.8245 3.27732 83.9917 3.27732 119.579ZM96.6808 65.5358C96.981 65.5358 97.2799 65.6178 97.5428 65.781 98.0252 66.0799 98.3195 66.6069 98.3195 67.1745L98.3195 80.3002 108.935 75.0047 107.446 10.4212 96.3603 10.4212 95.0756 66.1153 95.8917 65.7082C96.1309 65.5883 96.3957 65.5306 96.652 65.5358 96.6612 65.5358 96.671 65.5358 96.6808 65.5358ZM78.0722 37.6341 78.0722 74.6265 80.7426 73.2946 80.7426 37.6341 78.0722 37.6341ZM69.7046 111.468 63.4705 111.468C62.5653 111.468 61.8318 110.735 61.8318 109.829L61.8318 100.557C61.8318 99.6514 62.5653 98.9179 63.4705 98.9179L69.7046 98.9179C70.6098 98.9179 71.3432 99.6514 71.3432 100.557L71.3432 109.829C71.3432 110.735 70.6098 111.468 69.7046 111.468ZM65.1091 108.191 68.0659 108.191 68.0659 102.195 65.1091 102.195 65.1091 108.191ZM56.4577 111.468 50.2236 111.468C49.3184 111.468 48.5849 110.735 48.5849 109.829L48.5849 100.557C48.5849 99.6514 49.3184 98.9179 50.2236 98.9179L56.4577 98.9179C57.3629 98.9179 58.0963 99.6514 58.0963 100.557L58.0963 109.829C58.0963 110.735 57.3629 111.468 56.4577 111.468ZM51.8629 108.191 54.8197 108.191 54.8197 102.195 51.8629 102.195 51.8629 108.191ZM43.2108 111.468 36.9773 111.468C36.0721 111.468 35.3386 110.735 35.3386 109.829L35.3386 100.557C35.3386 99.6514 36.0721 98.9179 36.9773 98.9179L43.2108 98.9179C44.116 98.9179 44.8494 99.6514 44.8494 100.557L44.8494 109.829C44.8494 110.735 44.116 111.468 43.2108 111.468ZM38.616 108.191 41.5721 108.191 41.5721 102.195 38.616 102.195 38.616 108.191ZM29.9645 111.468 23.731 111.468C22.8259 111.468 22.0924 110.735 22.0924 109.829L22.0924 100.557C22.0924 99.6514 22.8259 98.9179 23.731 98.9179L29.9645 98.9179C30.8697 98.9179 31.6032 99.6514 31.6032 100.557L31.6032 109.829C31.6032 110.735 30.8697 111.468 29.9645 111.468ZM25.3697 108.191 28.3258 108.191 28.3258 102.195 25.3697 102.195 25.3697 108.191ZM16.7176 111.468 10.4841 111.468C9.57894 111.468 8.84548 110.735 8.84548 109.829L8.84548 100.557C8.84548 99.6514 9.57894 98.9179 10.4841 98.9179L16.7176 98.9179C17.6228 98.9179 18.3562 99.6514 18.3562 100.557L18.3562 109.829C18.3562 110.735 17.6228 111.468 16.7176 111.468ZM12.1228 108.191 15.0789 108.191 15.0789 102.195 12.1228 102.195 12.1228 108.191Z" fill="#000002" fill-rule="nonzero" fill-opacity="1" transform="matrix(1.00769 0 0 1 1021 276)"/></g></g></g></g></svg>